<svg viewBox="0 0 1024 1024" version="1.1" xmlns="http://www.w3.org/2000/svg" p-id="4269" xmlns:xlink="http://www.w3.org/1999/xlink" width="32" height="32"><path d="M517.12 43.91936c-258.73408 0-468.48 209.74592-468.48 468.48s209.74592 468.48 468.48 468.48 468.48-209.74592 468.48-468.48-209.74592-468.48-468.48-468.48zM742.23872 565.76H570.88v171.79904c0 29.568-24.192 53.76-53.76 53.76s-53.76-24.192-53.76-53.76V565.76h-171.43808c-29.568 0-53.76-24.192-53.76-53.76s24.192-53.76 53.76-53.76H463.36v-170.99776c0-29.568 24.192-53.76 53.76-53.76s53.76 24.192 53.76 53.76V458.24h171.35872c29.568 0 53.76 24.192 53.76 53.76s-24.192 53.76-53.76 53.76z" fill="rgba(65,204,121,0.75)"></path></svg>