<?xml version="1.0" standalone="no"?><!DOCTYPE svg PUBLIC "-//W3C//DTD SVG 1.1//EN" "http://www.w3.org/Graphics/SVG/1.1/DTD/svg11.dtd"><svg t="1745578858437" class="icon" viewBox="0 0 1024 1024" version="1.1" xmlns="http://www.w3.org/2000/svg" p-id="2723" xmlns:xlink="http://www.w3.org/1999/xlink" width="32" height="32"><path d="M128 0h768C981.333333 0 1024 42.666667 1024 128v768c0 85.333333-42.666667 128-128 128H128C42.666667 1024 0 981.333333 0 896V128C0 42.666667 42.666667 0 128 0z" fill="#30B4FF" p-id="2724"></path><path d="M577.923879 83.642182c11.264-29.758061 63.550061-23.288242 120.707879 3.211636 154.422303 72.502303 261.368242 231.873939 261.368242 416.116364 0 252.617697-201.076364 457.029818-448 457.029818-247.683879 0-448-204.350061-448-457.076364 0-40.199758 3.196121-80.461576 15.297939-117.449697 33.792-105.472 78.010182-164.988121 132.670061-144.911515 57.157818 20.945455 57.157818 69.197576 24.963879 118.287515-22.528 33.854061-82.881939 148.092121-32.19394 261.56994 17.733818 39.408485 78.848 129.536 135.928243 146.432 247.683879 73.216 260.608-99.017697 242.889697-185.095758-17.671758-86.078061-142.336-154.484364-199.431758-188.276363-56.32-33.792-52.286061-84.48-28.16-104.572122 24.126061-20.169697 126.277818 23.272727 196.297697 52.286061 70.718061 29.758061 189.750303 20.914424 193.008485-55.559758 3.971879-76.412121-77.234424-115.075879-106.992485-128.698181-29.758061-13.699879-70.795636-42.697697-60.353939-73.293576z m-0.775758 82.121697c40.96 16.135758 62.727758 54.721939 48.252121 86.140121-14.460121 31.356121-59.516121 44.218182-100.538181 28.16-40.96-16.135758-62.712242-54.721939-48.252122-86.140121 14.460121-31.356121 59.516121-44.218182 100.476122-28.16h0.06206z" fill="#FFFFFF" p-id="2725"></path></svg>