<?xml version="1.0" standalone="no"?><!DOCTYPE svg PUBLIC "-//W3C//DTD SVG 1.1//EN" "http://www.w3.org/Graphics/SVG/1.1/DTD/svg11.dtd"><svg t="1733814091400" class="icon" viewBox="0 0 1024 1024" version="1.1" xmlns="http://www.w3.org/2000/svg" p-id="53337" xmlns:xlink="http://www.w3.org/1999/xlink" width="64" height="64"><path d="M874.666667 469.333333H810.666667V298.666667c0-46.933333-38.4-85.333333-85.333334-85.333334h-170.666666V149.333333C554.666667 89.6 507.733333 42.666667 448 42.666667S341.333333 89.6 341.333333 149.333333V213.333333H170.666667c-46.933333 0-85.333333 38.4-85.333334 85.333334v170.666666h64C209.066667 469.333333 256 516.266667 256 576S209.066667 682.666667 149.333333 682.666667H85.333333v170.666666c0 46.933333 38.4 85.333333 85.333334 85.333334h170.666666v-64c0-59.733333 46.933333-106.666667 106.666667-106.666667s106.666667 46.933333 106.666667 106.666667V938.666667h170.666666c46.933333 0 85.333333-38.4 85.333334-85.333334v-170.666666h64c59.733333 0 106.666667-46.933333 106.666666-106.666667S934.4 469.333333 874.666667 469.333333z" p-id="53338" fill="#2c2c2c"></path></svg>