<?xml version="1.0" standalone="no"?><!DOCTYPE svg PUBLIC "-//W3C//DTD SVG 1.1//EN" "http://www.w3.org/Graphics/SVG/1.1/DTD/svg11.dtd"><svg t="1733808886992" class="icon" viewBox="0 0 1024 1024" version="1.1" xmlns="http://www.w3.org/2000/svg" p-id="5205" xmlns:xlink="http://www.w3.org/1999/xlink" width="64" height="64"><path d="M268.190476 146.285714h48.761905v97.52381a73.142857 73.142857 0 0 0 73.142857 73.142857h243.809524a73.142857 73.142857 0 0 0 73.142857-73.142857V146.285714h48.761905a73.142857 73.142857 0 0 1 73.142857 73.142857v609.52381a73.142857 73.142857 0 0 1-73.142857 73.142857H268.190476a73.142857 73.142857 0 0 1-73.142857-73.142857V219.428571a73.142857 73.142857 0 0 1 73.142857-73.142857z m292.571429 390.095238h-219.428572v73.142858h219.428572v-73.142858z m121.904762-146.285714H341.333333v73.142857h341.333334v-73.142857zM585.142857 73.142857a73.142857 73.142857 0 0 1 73.142857 73.142857v48.761905a73.142857 73.142857 0 0 1-73.142857 73.142857h-146.285714a73.142857 73.142857 0 0 1-73.142857-73.142857V146.285714a73.142857 73.142857 0 0 1 73.142857-73.142857h146.285714z m0 73.142857h-146.285714v48.761905h146.285714V146.285714z" p-id="5206"></path></svg>