<?xml version="1.0" standalone="no"?><!DOCTYPE svg PUBLIC "-//W3C//DTD SVG 1.1//EN" "http://www.w3.org/Graphics/SVG/1.1/DTD/svg11.dtd"><svg t="1733810093704" class="icon" viewBox="0 0 1024 1024" version="1.1" xmlns="http://www.w3.org/2000/svg" p-id="48579" xmlns:xlink="http://www.w3.org/1999/xlink" width="64" height="64"><path d="M262.4 262.4l115.2 0 0 115.2-115.2 0 0-115.2Z" fill="#272636" p-id="48580"></path><path d="M262.4 646.4l115.2 0 0 115.2-115.2 0 0-115.2Z" fill="#272636" p-id="48581"></path><path d="M646.4 262.4l115.2 0 0 115.2-115.2 0 0-115.2Z" fill="#272636" p-id="48582"></path><path d="M806.4 806.4l-115.2 0 0 57.6 115.2 0c32 0 57.6-25.6 57.6-57.6l0-57.6-57.6 0L806.4 806.4z" fill="#272636" p-id="48583"></path><path d="M160 217.6l0 262.4 320 0 0-320L217.6 160C185.6 160 160 185.6 160 217.6zM422.4 422.4 217.6 422.4 217.6 217.6l204.8 0L422.4 422.4z" fill="#272636" p-id="48584"></path><path d="M160 806.4c0 32 25.6 57.6 57.6 57.6l262.4 0 0-320-320 0L160 806.4zM217.6 601.6l204.8 0 0 204.8L217.6 806.4 217.6 601.6z" fill="#272636" p-id="48585"></path><path d="M544 544l204.8 0 0 57.6-204.8 0 0-57.6Z" fill="#272636" p-id="48586"></path><path d="M691.2 627.2 627.2 627.2 627.2 691.2 691.2 691.2 691.2 748.8 748.8 748.8 748.8 691.2 864 691.2 864 627.2 748.8 627.2Z" fill="#272636" p-id="48587"></path><path d="M544 748.8l57.6 0 0 115.2-57.6 0 0-115.2Z" fill="#272636" p-id="48588"></path><path d="M627.2 748.8l57.6 0 0 57.6-57.6 0 0-57.6Z" fill="#272636" p-id="48589"></path><path d="M544 627.2l57.6 0 0 57.6-57.6 0 0-57.6Z" fill="#272636" p-id="48590"></path><path d="M806.4 544l57.6 0 0 57.6-57.6 0 0-57.6Z" fill="#272636" p-id="48591"></path><path d="M806.4 160 544 160l0 320 320 0L864 217.6C864 185.6 838.4 160 806.4 160zM806.4 422.4 601.6 422.4 601.6 217.6l204.8 0L806.4 422.4z" fill="#272636" p-id="48592"></path></svg>