<?xml version="1.0" standalone="no"?><!DOCTYPE svg PUBLIC "-//W3C//DTD SVG 1.1//EN" "http://www.w3.org/Graphics/SVG/1.1/DTD/svg11.dtd"><svg t="1738524111112" class="icon" viewBox="0 0 1024 1024" version="1.1" xmlns="http://www.w3.org/2000/svg" p-id="10606" xmlns:xlink="http://www.w3.org/1999/xlink" width="32" height="32"><path d="M0 0h1024v1024H0z" fill-opacity="0" p-id="10607" fill="#d81e06"></path><path d="M419.328 760.832H226.816c-17.92-1.536-31.744-8.704-41.472-22.528-9.728-13.824-15.36-28.672-17.408-45.568 2.048-16.384 7.68-30.208 17.408-40.96 9.728-10.752 23.552-16.384 41.472-17.92h192.512v-62.976l-192.512-1.024c-17.92-1.536-31.744-7.68-41.472-18.944-9.728-11.264-15.36-25.6-17.408-43.008 2.048-16.384 7.68-30.208 17.408-40.96 9.728-10.752 23.552-16.384 41.472-17.92h143.36L237.056 215.04c-6.656-8.192-12.8-17.92-18.944-30.208-6.144-12.288-8.704-25.6-8.192-40.448 3.072-18.432 9.728-33.792 19.968-45.568 9.728-11.776 28.672-18.944 55.808-22.528 15.872 1.536 30.208 6.656 43.008 16.384 12.8 9.728 23.04 19.968 30.72 31.232l151.552 276.992 166.4-279.04c8.192-11.264 18.432-21.504 30.72-29.696 12.8-8.704 27.136-13.824 43.008-15.872 9.728 0.512 18.944 2.048 27.648 4.096 8.192 2.048 15.36 5.12 22.016 9.728 6.144 4.608 11.776 11.264 15.872 19.968 4.096 8.704 7.68 19.968 9.216 33.792 0 19.456-6.656 37.376-19.968 54.784l-154.624 250.88h146.432c17.408 1.536 30.72 7.168 40.96 17.92 9.728 10.752 15.36 24.064 16.896 40.96-1.536 17.408-7.168 31.744-17.408 44.032-10.24 11.776-24.064 18.432-41.472 19.968l-190.464 1.024v60.928h191.488c17.408 1.536 30.72 8.192 40.96 19.968 9.728 11.776 15.36 26.112 16.896 43.008-1.536 17.408-7.168 31.744-16.896 43.52s-23.552 17.92-40.96 19.456l-191.488-1.024v105.472c-2.56 56.32-33.792 84.48-92.672 84.48-29.184 0-52.224-7.168-68.096-20.992-16.384-13.824-25.088-35.328-26.624-64v-103.424z" fill="#d81e06" p-id="10608"></path></svg>