<svg viewBox="0 0 1024 1024" xmlns="http://www.w3.org/2000/svg" p-id="11401" width="42" height="48"><path d="M376.82 250.57h33.58v161.72a50 50 0 0 0 50 50h100.28a50 50 0 0 0 50-50V245h39.15a50 50 0 0 0 34.63-86.07L545.17 25.22a50 50 0 0 0-70.7 1.44L340.76 166a50 50 0 0 0 36.06 84.62zM510.54 61.29L649.83 195H577.4c-11.14 0-16.72 11.14-16.72 22.29v195H460.4v-195c0-11.15-11.14-16.72-22.29-16.72h-61.29z" p-id="11402" fill="#66D"></path><path d="M1013 491.75l-77.79-240.67c-5.22-16.16-20.63-27.15-38.05-27.15h-133a25 25 0 0 0 0 50h125.9l70.53 218.21H697.08a18.55 18.55 0 0 0-18.51 19.52c0.06 1.14 0.1 2.27 0.13 3.41 0.06 1.74 0.09 3.47 0.09 5.22s0 3.72-0.1 5.58c-0.05 1.51-0.13 3-0.22 4.51 0 0.31 0 0.63-0.05 0.94-0.24 3.59-0.6 7.16-1.06 10.7-0.05 0.37-0.08 0.75-0.13 1.12l-0.21 1.43a166 166 0 0 1-328.67-1.43c0-0.33-0.07-0.67-0.12-1q-0.71-5.39-1.07-10.84v-0.42c-0.11-1.67-0.2-3.35-0.25-5-0.05-1.51-0.07-3-0.08-4.55v-1.09c0-1.71 0-3.42 0.09-5.12 0-1.14 0.07-2.28 0.13-3.42a18.55 18.55 0 0 0-18.51-19.52H66.29l70.53-218.21H259a25 25 0 0 0 0-50H129.7c-17.42 0-32.82 11-38 27.15L13.87 491.75A37.8 37.8 0 0 0 12 504v469.94a38.76 38.76 0 0 0 38.77 38.77h925.1a38.77 38.77 0 0 0 38.77-38.77V507.29a37.63 37.63 0 0 0-1.64-15.54z m-48.35 471H62V544.57h236.16c12.07 107.86 103.55 191.72 214.63 191.72s202.56-83.86 214.63-191.72h237.23z" p-id="11403" fill="#66D"></path></svg>