<?xml version="1.0" standalone="no"?><!DOCTYPE svg PUBLIC "-//W3C//DTD SVG 1.1//EN" "http://www.w3.org/Graphics/SVG/1.1/DTD/svg11.dtd"><svg t="1733809579967" class="icon" viewBox="0 0 1024 1024" version="1.1" xmlns="http://www.w3.org/2000/svg" p-id="41382" xmlns:xlink="http://www.w3.org/1999/xlink" width="64" height="64"><path d="M664.32 896c29.376-31.04 39.68-75.52 39.68-138.24 0-99.456-34.944-184.448-107.712-240.128C619.136 513.92 644.288 512 672 512c241.728 0 288 147.648 288 245.76S956.352 896 672 896h-7.68zM550.4 392C566.784 360.96 576 325.568 576 288s-9.216-72.96-25.6-104a160 160 0 1 1 0 208zM352 448a160 160 0 1 1 0-320 160 160 0 0 1 0 320z m0 448C67.648 896 64 853.184 64 757.76S110.272 512 352 512s288 147.648 288 245.76S636.352 896 352 896z" p-id="41383" fill="#2c2c2c"></path></svg>