<svg viewBox="0 0 1024 1024" width="64" height="64"><path d="M186.197333 0h651.605334C961.962667 0 1024 62.08 1024 186.197333v651.605334C1024 961.962667 961.962667 1024 837.802667 1024H186.197333C62.037333 1024 0 961.962667 0 837.802667V186.197333C0 62.037333 62.08 0 186.197333 0z" fill="#09BB07" p-id="6036"></path><path d="M404.096 596.266667a22.613333 22.613333 0 0 1-10.581333 2.432 23.253333 23.253333 0 0 1-20.48-12.074667l-1.706667-3.157333-64.597333-138.24c-0.810667-1.578667-0.810667-3.157333-0.810667-4.778667a11.093333 11.093333 0 0 1 11.52-11.264 13.226667 13.226667 0 0 1 7.338667 2.432l76.074666 53.034667a40.021333 40.021333 0 0 0 19.626667 5.546666 32.810667 32.810667 0 0 0 12.245333-2.389333l356.906667-155.776c-63.872-73.898667-169.386667-122.154667-288.938667-122.154667-194.730667 0-353.536 129.322667-353.536 289.109334 0 86.741333 47.488 165.461333 121.941334 218.453333 5.674667 4.053333 9.813333 11.264 9.813333 18.474667a21.930667 21.930667 0 0 1-1.706667 7.253333c-5.674667 21.632-15.573333 57.045333-15.573333 58.581333a28.458667 28.458667 0 0 0-1.706667 8.832 11.093333 11.093333 0 0 0 11.52 11.264 9.386667 9.386667 0 0 0 6.570667-2.389333l76.885333-44.16a39.893333 39.893333 0 0 1 18.816-5.589333c3.242667 0 7.381333 0.768 10.624 1.621333 37.546667 10.709333 76.373333 16.128 115.413334 16.085333 194.773333 0 353.536-129.322667 353.536-289.109333 0-48.213333-14.72-93.952-40.106667-134.186667l-406.613333 230.528-2.474667 1.621334z" fill="#FFFFFF" p-id="6037"></path></svg>